<?xml version="1.0" standalone="no"?>
<!DOCTYPE svg PUBLIC "-//W3C//DTD SVG 20010904//EN"
 "http://www.w3.org/TR/2001/REC-SVG-20010904/DTD/svg10.dtd">
<svg version="1.0" xmlns="http://www.w3.org/2000/svg"
 width="48.000000pt" height="48.000000pt" viewBox="0 0 48.000000 48.000000"
 preserveAspectRatio="xMidYMid meet">

<g transform="translate(0.000000,48.000000) scale(0.100000,-0.100000)"
fill="#000000" stroke="none">
<path d="M155 422 c-66 -16 -70 -19 -73 -47 -5 -45 17 -143 45 -198 13 -27 45
-69 70 -94 l45 -45 45 43 c24 24 58 73 76 109 26 54 31 77 31 140 l1 74 -70
17 c-86 21 -84 21 -170 1z m35 -32 c0 -5 -5 -10 -11 -10 -5 0 -7 5 -4 10 3 6
8 10 11 10 2 0 4 -4 4 -10z m195 -30 c3 -6 -1 -7 -9 -4 -18 7 -21 14 -7 14 6
0 13 -4 16 -10z m-115 -10 c9 -6 10 -10 3 -10 -6 0 -19 -3 -27 -6 -12 -5 -15
-2 -10 10 7 18 13 20 34 6z m-94 -31 c-51 -61 -19 -113 47 -77 19 10 20 9 9
-4 -10 -13 -9 -16 8 -21 11 -3 18 -1 14 4 -9 14 4 10 26 -8 11 -10 20 -26 20
-36 0 -16 -5 -18 -27 -12 -16 4 -28 7 -28 8 0 1 -5 11 -11 22 -15 28 -80 34
-87 8 -3 -10 -5 4 -6 30 -1 50 11 83 38 104 25 20 25 15 -3 -18z m155 -15 c22
-25 22 -26 3 -16 -12 6 -24 18 -28 27 -8 21 -3 19 25 -11z m-14 -61 c3 -35 -7
-42 -26 -19 -9 11 -9 15 1 19 7 2 10 8 6 12 -4 4 -15 2 -24 -5 -13 -12 -17
-11 -24 0 -11 18 7 31 40 28 20 -3 25 -9 27 -35z m-122 9 c-3 -3 -11 0 -18 7
-9 10 -8 11 6 5 10 -3 15 -9 12 -12z m152 -4 c-3 -8 -6 -5 -6 6 -1 11 2 17 5
13 3 -3 4 -12 1 -19z m-17 -86 c0 -5 -7 -17 -15 -28 -14 -18 -14 -17 -4 9 12
27 19 34 19 19z m-55 -13 c11 -17 0 -20 -21 -4 -17 13 -17 14 -2 15 9 0 20 -5
23 -11z m-30 -49 c3 5 13 10 21 10 21 0 9 -16 -17 -23 -15 -4 -31 4 -57 30
l-37 35 42 -31 c25 -19 44 -27 48 -21z"/>
</g>
</svg>
